<svg xmlns="http://www.w3.org/2000/svg" width="1024" height="1024" viewBox="0 0 1024 1024" version="1.1">
	<path d="M 304.500 170.586 C 289.806 172.049, 280.096 173.455, 270.453 175.516 C 195.078 191.628, 131.430 244.727, 102.657 315.500 C 83.456 362.730, 80.043 409.842, 92.101 461.204 L 94.169 470.011 181.777 469.755 L 269.385 469.500 296.550 397.451 C 311.491 357.825, 324.525 323.696, 325.515 321.610 C 330.551 310.998, 343.241 301.978, 356.277 299.745 C 372.043 297.045, 388.873 304.778, 397.922 318.879 C 399.590 321.478, 420.806 375.107, 445.068 438.053 C 469.330 500.999, 489.558 553.174, 490.019 553.999 C 490.985 555.724, 489.840 558.212, 506.599 517.974 C 514.605 498.754, 519.555 488.213, 522.066 485.035 C 526.617 479.278, 534.060 474.394, 542.091 471.895 C 547.976 470.063, 554.527 470, 739 470 L 929.821 470 931.963 460.750 C 937.406 437.238, 938.419 428.548, 938.460 405 C 938.502 381.477, 937.656 372.800, 933.490 354 C 915.860 274.439, 857.306 209.044, 780.478 183.108 C 753.283 173.927, 732.895 170.590, 704 170.590 C 693.275 170.590, 680.225 171.171, 675 171.880 C 630.907 177.863, 590.225 195.218, 556 222.646 C 542.102 233.785, 522.747 254.101, 513.617 267.136 L 512 269.445 510.383 267.136 C 501.253 254.101, 481.898 233.785, 468 222.646 C 434.631 195.904, 394.599 178.504, 352.500 172.443 C 342.530 171.007, 312.094 169.830, 304.500 170.586 M 361.312 407.223 C 360.743 408.475, 351.117 431.758, 339.921 458.962 C 327.348 489.511, 318.071 510.660, 315.659 514.273 C 311.191 520.964, 303.531 527.159, 295.814 530.322 C 290.531 532.487, 290.001 532.503, 204 533 C 118.452 533.494, 117.443 533.524, 112.281 535.642 C 80.739 548.589, 75.311 591.359, 102.720 610.986 C 113.916 619.003, 113.880 618.999, 176.355 619.005 L 231.500 619.010 351.057 737.279 C 416.814 802.327, 475.951 860.127, 482.472 865.723 C 508.424 887.990, 515.578 887.987, 541.557 865.699 C 548.095 860.089, 607.232 802.290, 672.972 737.256 L 792.500 619.012 847.645 619.006 C 910.120 618.999, 910.084 619.003, 921.280 610.986 C 949.630 590.685, 942.411 545.238, 909.207 534.982 C 902.918 533.040, 899.469 533, 737.002 533 C 605.300 533, 571.113 533.257, 570.723 534.250 C 559.462 562.900, 529.070 636.700, 527.245 639.828 C 523.096 646.936, 515.653 653.799, 508.426 657.181 C 487.810 666.829, 462.784 656.807, 452.017 634.592 C 450.393 631.241, 429.884 578.550, 406.442 517.500 C 382.999 456.450, 363.488 406.150, 363.083 405.723 C 362.677 405.295, 361.880 405.970, 361.312 407.223" stroke="none" fill="black" fill-rule="evenodd"/>
</svg>